<svg xmlns="http://www.w3.org/2000/svg" xmlns:xlink="http://www.w3.org/1999/xlink"
  id="Layer_2_00000129176620004348167070000015447430896780523145_" x="0px" y="0px" viewBox="0 0 413.1 81.1"
  style="enable-background:new 0 0 413.1 81.1;" xml:space="preserve">
  <style type="text/css">
    .st0 {
      fill: #36B565;
    }

    .st1 {
      fill: #1d1d1b;
    }
  </style>
  <g id="Layer_1-2">
    <g>
      <g>
        <path class="st0"
          d="M95.1,67.2c0-0.1,0.1-0.1,0.1-0.2c0.1-0.2,0.3-0.4,0.4-0.6c0.1-0.1,0.2-0.3,0.3-0.4c0.1-0.1,0.2-0.3,0.2-0.4    c0.1-0.2,0.3-0.4,0.4-0.7c0-0.1,0.1-0.1,0.1-0.2c1.1-2,1.8-4.2,2.3-6.4c0.8-3.8,0.7-7.9-0.6-11.9c-3.2-10.3-12.6-17-22.9-17.2    c-3.8,0-6.6,3.6-5.5,7.3l0,0c0.7,2.4,3,3.9,5.5,4c5.4,0.1,10.4,3.7,12.1,9.2c0.4,1.3,0.6,2.5,0.6,3.8l0,0c0,1.1-0.1,2.2-0.4,3.2    c0,0,0,0.1,0,0.2c0,0.2-0.1,0.3-0.1,0.4c0,0.1-0.1,0.2-0.1,0.3c0,0.1-0.1,0.2-0.1,0.3c0,0.1-0.1,0.2-0.1,0.3    c0,0.1-0.1,0.2-0.1,0.3c0,0.1-0.1,0.2-0.1,0.3c0,0.1-0.1,0.2-0.1,0.3c0,0.1-0.1,0.1-0.1,0.2c-0.1,0.1-0.1,0.2-0.2,0.4    c0,0,0,0.1-0.1,0.1c-2.2,4-6.5,6.7-11.4,6.7c-7.2,0-13-5.8-13-13l0,0V5.7C62,2.5,59.5,0,56.4,0s-5.7,2.5-5.7,5.7v47.9l0,0    C50.7,67,61.6,77.8,75,77.8c2.5,0,4.9-0.4,7.1-1.1l0,0c0,0,0,0,0.1,0c0.1,0,0.2-0.1,0.3-0.1C87.8,74.9,92.1,71.5,95.1,67.2    L95.1,67.2z">
        </path>
        <path class="st0"
          d="M35.2,76.1c-0.9,0-1.9-0.2-2.7-0.8L2.7,57.8C1,56.8,0,55,0,53.1c0-1.9,1-3.7,2.7-4.7L32,31.6    c2.6-1.5,5.9-0.6,7.4,2c1.5,2.6,0.6,5.9-2,7.4L16.1,53.2L38,66c2.6,1.5,3.4,4.8,1.9,7.4C38.9,75.1,37.1,76.1,35.2,76.1L35.2,76.1    z">
        </path>
      </g>
      <g>
        <path class="st1"
          d="M133.5,40.9c1.7-0.8,3.6-1.3,5.6-1.3c2.4,0,4.6,0.6,6.6,1.8s3.5,2.8,4.6,5s1.7,4.6,1.7,7.4s-0.6,5.2-1.7,7.4    c-1.1,2.2-2.7,3.9-4.7,5.1s-4.2,1.8-6.6,1.8c-2.1,0-4-0.4-5.7-1.2c-1.6-0.8-2.9-1.9-3.9-3.2v4h-5.7V30.6h5.7v13.5    C130.5,42.8,131.8,41.7,133.5,40.9z M145.1,48.7c-0.8-1.4-1.8-2.4-3.1-3.1c-1.3-0.7-2.6-1.1-4.1-1.1s-2.8,0.4-4.1,1.1    c-1.3,0.7-2.3,1.8-3.1,3.2c-0.8,1.4-1.2,3-1.2,4.9s0.4,3.5,1.2,5c0.8,1.4,1.8,2.5,3.1,3.2s2.6,1.1,4.1,1.1s2.8-0.4,4.1-1.1    s2.3-1.8,3.1-3.3s1.2-3.1,1.2-5S145.8,50.1,145.1,48.7L145.1,48.7z">
        </path>
        <path class="st1"
          d="M165.2,40.8c1.4-0.8,3-1.2,4.9-1.2v5.9h-1.4c-2.2,0-3.9,0.6-5.1,1.7c-1.1,1.1-1.7,3.1-1.7,5.9v14.5h-5.7V40    h5.7v4C162.7,42.6,163.8,41.5,165.2,40.8z">
        </path>
        <path class="st1"
          d="M174.1,35.4c-0.7-0.7-1.1-1.6-1.1-2.6s0.4-1.9,1.1-2.6c0.7-0.7,1.6-1,2.6-1s1.9,0.4,2.5,1    c0.7,0.7,1.1,1.6,1.1,2.6c0,1-0.4,1.9-1.1,2.6c-0.7,0.7-1.6,1-2.5,1S174.8,36.1,174.1,35.4z M179.5,40v27.5h-5.7V40    C173.8,40,179.5,40,179.5,40z">
        </path>
        <path class="st1"
          d="M202.2,40.9c1.6,0.8,2.9,1.9,3.9,3.2v-4h5.7v28c0,2.5-0.5,4.8-1.6,6.8c-1.1,2-2.6,3.5-4.6,4.7    c-2,1.1-4.4,1.7-7.2,1.7c-3.7,0-6.8-0.9-9.3-2.6c-2.5-1.8-3.9-4.1-4.2-7.1h5.6c0.4,1.4,1.4,2.6,2.8,3.5c1.4,0.9,3.1,1.3,5.1,1.3    c2.3,0,4.1-0.7,5.6-2.1s2.1-3.4,2.1-6.1v-4.6c-1,1.3-2.3,2.4-3.9,3.3s-3.5,1.3-5.6,1.3c-2.4,0-4.6-0.6-6.6-1.8s-3.5-2.9-4.7-5.1    c-1.1-2.2-1.7-4.7-1.7-7.4s0.6-5.2,1.7-7.3s2.7-3.8,4.7-5c2-1.2,4.2-1.8,6.6-1.8C198.7,39.6,200.6,40,202.2,40.9z M204.9,48.8    c-0.8-1.4-1.8-2.5-3.1-3.2c-1.3-0.7-2.6-1.1-4.1-1.1s-2.8,0.4-4.1,1.1c-1.3,0.7-2.3,1.8-3.1,3.1c-0.8,1.4-1.2,3-1.2,4.9    s0.4,3.6,1.2,5c0.8,1.4,1.8,2.5,3.1,3.3s2.6,1.1,4.1,1.1s2.8-0.4,4.1-1.1s2.3-1.8,3.1-3.2c0.8-1.4,1.2-3.1,1.2-5    S205.7,50.2,204.9,48.8L204.9,48.8z">
        </path>
        <path class="st1"
          d="M237.2,40.9c1.6,0.9,2.9,2.2,3.9,4c0.9,1.8,1.4,3.9,1.4,6.4v16.2h-5.6V52.2c0-2.5-0.6-4.3-1.9-5.7    c-1.2-1.3-2.9-2-5-2s-3.8,0.7-5.1,2s-1.9,3.2-1.9,5.7v15.4h-5.7V30.6h5.7v12.6c1-1.2,2.2-2.1,3.7-2.7c1.5-0.6,3.1-1,4.9-1    C233.7,39.6,235.5,40.1,237.2,40.9L237.2,40.9z">
        </path>
        <path class="st1"
          d="M254.9,44.7v15.2c0,1,0.2,1.8,0.7,2.2c0.5,0.5,1.3,0.7,2.5,0.7h3.5v4.7h-4.5c-2.6,0-4.5-0.6-5.9-1.8    s-2.1-3.1-2.1-5.8V44.7h-3.2V40h3.2v-6.8h5.7V40h6.7v4.6L254.9,44.7L254.9,44.7z">
        </path>
        <path class="st1"
          d="M268,66.8c-0.7-0.7-1-1.6-1-2.6s0.4-1.9,1-2.6c0.7-0.7,1.6-1,2.6-1s1.9,0.3,2.5,1c0.7,0.7,1,1.6,1,2.6    c0,1-0.4,1.9-1,2.6c-0.7,0.7-1.5,1.1-2.5,1.1S268.7,67.5,268,66.8z">
        </path>
        <path class="st1"
          d="M296.1,40.9c1.6,0.8,2.9,1.9,3.9,3.2v-4h5.7v28c0,2.5-0.5,4.8-1.6,6.8c-1.1,2-2.6,3.5-4.6,4.7    c-2,1.1-4.4,1.7-7.2,1.7c-3.7,0-6.8-0.9-9.3-2.6s-3.9-4.1-4.2-7.1h5.6c0.4,1.4,1.4,2.6,2.8,3.5c1.4,0.9,3.1,1.3,5.1,1.3    c2.3,0,4.1-0.7,5.6-2.1s2.1-3.4,2.1-6.1v-4.6c-1,1.3-2.3,2.4-3.9,3.3c-1.6,0.9-3.5,1.3-5.6,1.3c-2.4,0-4.6-0.6-6.6-1.8    s-3.5-2.9-4.7-5.1s-1.7-4.7-1.7-7.4s0.6-5.2,1.7-7.3s2.7-3.8,4.7-5c2-1.2,4.2-1.8,6.6-1.8C292.5,39.6,294.4,40,296.1,40.9z     M298.8,48.8c-0.8-1.4-1.8-2.5-3.1-3.2c-1.3-0.7-2.6-1.1-4.1-1.1s-2.8,0.4-4.1,1.1c-1.3,0.7-2.3,1.8-3.1,3.1s-1.2,3-1.2,4.9    s0.4,3.6,1.2,5c0.8,1.4,1.8,2.5,3.1,3.3s2.6,1.1,4.1,1.1s2.8-0.4,4.1-1.1s2.3-1.8,3.1-3.2c0.8-1.4,1.2-3.1,1.2-5    S299.5,50.2,298.8,48.8L298.8,48.8z">
        </path>
        <path class="st1"
          d="M320.2,40.8c1.4-0.8,3-1.2,4.9-1.2v5.9h-1.5c-2.2,0-3.9,0.6-5.1,1.7s-1.7,3.1-1.7,5.9v14.5h-5.7V40h5.7v4    C317.7,42.6,318.8,41.5,320.2,40.8z">
        </path>
        <path class="st1"
          d="M353.8,55.9h-21c0.2,2.2,1,4,2.4,5.3s3.3,2,5.4,2c3.1,0,5.2-1.3,6.5-3.8h6.1c-0.8,2.5-2.3,4.6-4.5,6.2    c-2.2,1.6-4.9,2.4-8.1,2.4c-2.6,0-5-0.6-7.1-1.8s-3.7-2.8-4.9-5c-1.2-2.2-1.8-4.6-1.8-7.5s0.6-5.3,1.7-7.5c1.1-2.2,2.8-3.8,4.8-5    s4.5-1.8,7.2-1.8s4.9,0.6,6.9,1.7s3.6,2.7,4.7,4.8s1.7,4.4,1.7,7.1C354,54.2,354,55.1,353.8,55.9L353.8,55.9z M348.1,51.3    c0-2.1-0.8-3.8-2.2-5c-1.5-1.3-3.3-1.9-5.4-1.9c-2,0-3.6,0.6-5,1.9s-2.2,2.9-2.5,5.1L348.1,51.3L348.1,51.3z">
        </path>
        <path class="st1"
          d="M383.7,55.9h-21c0.2,2.2,1,4,2.4,5.3s3.3,2,5.4,2c3.1,0,5.2-1.3,6.5-3.8h6.1c-0.8,2.5-2.3,4.6-4.5,6.2    c-2.2,1.6-4.9,2.4-8.1,2.4c-2.6,0-5-0.6-7.1-1.8s-3.7-2.8-4.9-5c-1.2-2.2-1.8-4.6-1.8-7.5s0.6-5.3,1.7-7.5c1.1-2.2,2.8-3.8,4.8-5    s4.5-1.8,7.2-1.8s4.9,0.6,6.9,1.7s3.6,2.7,4.7,4.8s1.7,4.4,1.7,7.1C383.9,54.2,383.8,55.1,383.7,55.9L383.7,55.9z M378,51.3    c0-2.1-0.8-3.8-2.2-5c-1.5-1.3-3.3-1.9-5.4-1.9c-2,0-3.6,0.6-5,1.9s-2.2,2.9-2.5,5.1L378,51.3L378,51.3z">
        </path>
        <path class="st1"
          d="M407.7,40.9c1.7,0.9,3,2.2,4,4c1,1.8,1.5,3.9,1.5,6.4v16.2h-5.6V52.2c0-2.5-0.6-4.3-1.9-5.7s-2.9-2-5-2    s-3.8,0.7-5.1,2s-1.9,3.2-1.9,5.7v15.4H388V40h5.7v3.1c0.9-1.1,2.1-2,3.6-2.7c1.5-0.6,3-1,4.6-1C404,39.6,406,40,407.7,40.9    L407.7,40.9z">
        </path>
      </g>
    </g>
  </g>
</svg>