<svg width="255" height="151" viewBox="0 0 255 151" fill="none" xmlns="http://www.w3.org/2000/svg">
  <g clipPath="url(#clip0_2419_24741)">
    <g clipPath="url(#clip1_2419_24741)">
      <path
        d="M168.568 66.6021C165.709 64.8263 161.962 65.7055 160.189 68.5695C153.427 79.4854 141.737 86.0054 128.925 86.0054C108.656 86.0054 92.1683 69.4922 92.1683 49.1923C92.1683 28.8924 108.656 12.3705 128.925 12.3705C141.641 12.3705 153.288 18.8208 160.068 29.6149C161.858 32.4614 165.613 33.3232 168.455 31.53C171.297 29.7368 172.158 25.9763 170.367 23.1298C161.345 8.75794 145.857 0.183594 128.925 0.183594C101.946 0.183594 80 22.1635 80 49.1836C80 76.2037 101.946 98.1836 128.925 98.1836C145.979 98.1836 161.528 89.5135 170.524 74.985C172.297 72.1211 171.419 68.3692 168.559 66.5934L168.568 66.6021Z"
        fill="white" />
      <path
        d="M168.916 43.0901H149.386C146.917 35.6561 140.059 30.3026 132.002 30.3026H120.738C117.374 30.3026 114.654 33.0273 114.654 36.3961C114.654 39.7649 117.374 42.4895 120.738 42.4895H132.002C135.427 42.4895 138.208 45.4927 138.208 49.1836C138.208 52.8745 135.427 55.8777 132.002 55.8777H120.99C117.626 55.8777 114.906 58.6023 114.906 61.9711C114.906 65.3399 117.626 68.0646 120.99 68.0646H132.002C140.059 68.0646 146.917 62.7023 149.386 55.277H168.916C172.28 55.277 175 52.5524 175 49.1836C175 45.8148 172.28 43.0901 168.916 43.0901Z"
        fill="white" />
      <path
        d="M28.5189 119.621C31.4531 121.929 33.2669 125.073 33.9843 129.043H26.3908C25.9717 126.916 24.956 125.246 23.3438 124.041C21.7316 122.835 19.7083 122.229 17.2819 122.229C14.517 122.229 12.2196 123.182 10.3736 125.08C8.53574 126.979 7.60873 129.775 7.60873 133.454C7.60873 137.133 8.52768 139.937 10.3736 141.86C12.2196 143.782 14.517 144.743 17.2819 144.743C19.7083 144.743 21.7316 144.128 23.3438 142.899C24.956 141.671 25.9717 139.993 26.3908 137.866H33.9843C33.2749 141.836 31.4531 144.987 28.5189 147.319C25.5847 149.65 21.8847 150.816 17.4028 150.816C14.0495 150.816 11.0911 150.123 8.51962 148.729C5.94817 147.334 3.92486 145.334 2.45776 142.718C0.990657 140.103 0.257111 137.015 0.257111 133.454C0.257111 129.894 0.990657 126.869 2.45776 124.253C3.92486 121.638 5.94011 119.629 8.51962 118.243C11.0911 116.848 14.0575 116.155 17.4028 116.155C21.8847 116.155 25.5847 117.313 28.5189 119.621Z"
        fill="white" />
      <path
        d="M65.7444 118.243C68.4206 119.637 70.5165 121.638 72.0239 124.253C73.5313 126.869 74.2809 129.941 74.2809 133.454C74.2809 136.968 73.5313 140.103 72.0239 142.718C70.5165 145.334 68.4206 147.342 65.7444 148.729C63.0681 150.123 60.0533 150.816 56.6999 150.816C53.3466 150.816 50.3479 150.123 47.6877 148.729C45.0276 147.334 42.9398 145.326 41.4082 142.687C39.8766 140.048 39.1189 136.968 39.1189 133.454C39.1189 129.941 39.8847 126.869 41.4082 124.253C42.9318 121.638 45.0276 119.629 47.6877 118.243C50.3479 116.848 53.3466 116.155 56.6999 116.155C60.0533 116.155 63.06 116.848 65.7444 118.243ZM51.6215 123.458C50.0738 124.277 48.8243 125.537 47.8812 127.231C46.9381 128.933 46.4705 131.004 46.4705 133.462C46.4705 135.92 46.9381 138.047 47.8812 139.717C48.8243 141.395 50.0657 142.639 51.6215 143.459C53.1692 144.278 54.862 144.688 56.708 144.688C58.5539 144.688 60.2468 144.278 61.7945 143.459C63.3422 142.639 64.5916 141.395 65.5267 139.717C66.4698 138.039 66.9374 135.951 66.9374 133.462C66.9374 130.973 66.4698 128.933 65.5267 127.231C64.5836 125.537 63.3422 124.277 61.7945 123.458C60.2468 122.638 58.5539 122.229 56.708 122.229C54.862 122.229 53.1692 122.638 51.6215 123.458Z"
        fill="white" />
      <path
        d="M108.944 119.843C111.37 122.38 112.587 126.004 112.587 130.707V150.4H105.429V131.439C105.429 128.414 104.631 126.067 103.043 124.412C101.455 122.758 99.2784 121.931 96.5135 121.931C93.7486 121.931 91.3867 122.821 89.6697 124.601C87.9527 126.382 87.0902 128.989 87.0902 132.424V150.4H79.932V116.59H87.0902V124.018C88.0091 121.482 89.5649 119.52 91.7414 118.126C93.9178 116.732 96.4248 116.039 99.2784 116.039C103.293 116.039 106.517 117.307 108.944 119.843Z"
        fill="white" />
      <path
        d="M148.693 119.843C151.119 122.38 152.336 126.004 152.336 130.707V150.4H145.178V131.439C145.178 128.414 144.38 126.067 142.792 124.412C141.204 122.758 139.028 121.931 136.263 121.931C133.498 121.931 131.136 122.821 129.419 124.601C127.702 126.382 126.839 128.989 126.839 132.424V150.4H119.681V116.59H126.839V124.018C127.758 121.482 129.314 119.52 131.491 118.126C133.667 116.732 136.174 116.039 139.028 116.039C143.042 116.039 146.266 117.307 148.693 119.843Z"
        fill="white" />
      <path
        d="M191.318 135.101H164.693C164.822 138.575 165.805 140.922 167.643 142.6C169.489 144.278 171.77 145.113 174.487 145.113C176.873 145.113 178.888 144.522 180.549 143.333C182.201 142.143 183.217 140.576 183.596 138.606H191.254C190.794 140.977 189.827 143.088 188.368 144.924C186.901 146.767 184.999 148.209 182.653 149.249C180.307 150.289 177.695 150.816 174.801 150.816C171.448 150.816 168.49 150.123 165.918 148.729C163.347 147.334 161.323 145.334 159.856 142.718C158.389 140.103 157.656 137.015 157.656 133.454C157.656 129.894 158.389 126.869 159.856 124.253C161.323 121.638 163.339 119.629 165.918 118.243C168.49 116.848 171.456 116.155 174.801 116.155C178.147 116.155 181.153 116.841 183.685 118.211C186.216 119.582 188.166 121.465 189.521 123.859C190.883 126.254 191.56 128.925 191.56 131.871C191.56 133.013 191.48 134.25 191.31 135.109L191.318 135.101ZM183.185 126.128C182.322 124.639 181.153 123.529 179.67 122.812C178.187 122.095 176.559 121.74 174.801 121.74C171.996 121.74 169.65 122.583 167.764 124.253C165.878 125.931 164.854 128.105 164.685 131.383H184.337C184.418 129.169 184.031 127.617 183.177 126.128H183.185Z"
        fill="white" />
      <path
        d="M224.973 119.621C227.908 121.929 229.721 125.073 230.439 129.043H222.845C222.426 126.916 221.41 125.246 219.798 124.041C218.186 122.835 216.163 122.229 213.736 122.229C210.971 122.229 208.674 123.182 206.828 125.08C204.99 126.979 204.063 129.775 204.063 133.454C204.063 137.133 204.982 139.937 206.828 141.86C208.674 143.782 210.971 144.743 213.736 144.743C216.163 144.743 218.186 144.128 219.798 142.899C221.41 141.671 222.426 139.993 222.845 137.866H230.439C229.729 141.836 227.908 144.987 224.973 147.319C222.039 149.65 218.339 150.816 213.857 150.816C210.504 150.816 207.546 150.123 204.974 148.729C202.403 147.334 200.379 145.334 198.912 142.718C197.445 140.103 196.712 137.015 196.712 133.454C196.712 129.894 197.445 126.869 198.912 124.253C200.379 121.638 202.395 119.629 204.974 118.243C207.546 116.848 210.512 116.155 213.857 116.155C218.339 116.155 222.039 117.313 224.973 119.621Z"
        fill="white" />
      <path
        d="M254.735 144.326V150.399H250.342C246.658 150.399 243.861 149.533 241.958 147.792C240.056 146.051 239.105 143.16 239.105 139.111V122.544H234.147V116.589H239.105V108.184H246.327V116.589H254.678V122.544H246.327V139.237C246.327 141.159 246.698 142.49 247.432 143.223C248.165 143.963 249.447 144.326 251.293 144.326H254.743H254.735Z"
        fill="white" />
    </g>
  </g>
  <defs>
    <clipPath id="clip0_2419_24741">
      <rect width="254.486" height="150.633" fill="white" transform="translate(0.257111 0.183594)" />
    </clipPath>
    <clipPath id="clip1_2419_24741">
      <rect width="254.486" height="150.633" fill="white" transform="translate(0.257111 0.183594)" />
    </clipPath>
  </defs>
</svg>